<svg id="_x31__x2C_5" height="512" viewBox="0 0 24 24" width="512" xmlns="http://www.w3.org/2000/svg"><path d="m9.206 14.417h-1.014c-.157 0-.307-.07-.413-.193s-.157-.287-.142-.451l.272-2.934c.028-.301.268-.53.555-.53h2.229c.308 0 .557.263.557.587v1.369c0 1.187-.917 2.152-2.044 2.152z" fill="#cfd8dc"/><path d="m4.75 10.25-3.82 9.8c-.12.3-.18.61-.18.93 0 1.26 1.01 2.27 2.27 2.27h2.37c.5 0 .92-.36.99-.85l1.87-12.15z" fill="#90a4ae"/><path d="m5.167 1.75c-2.53 0-4.583 1.904-4.583 4.25s2.053 4.25 4.583 4.25h7.5v-8.5z" fill="#cfd8dc"/><path d="m15.352 2.617c-.099-.195-.222-.399-.346-.595-.115-.17-.305-.272-.511-.272h-1.745v8.5h1.639c.189 0 .362-.085.486-.238.173-.221.321-.459.469-.739.519-.935.889-1.709.906-3.026.017-1.293-.296-2.551-.898-3.63z" fill="#90a4ae"/><path d="m18.427 9.463c-.207 0-.412-.085-.561-.251-.275-.31-.248-.783.061-1.059.656-.585 1.024-1.36 1.038-2.187.014-.822-.329-1.607-.965-2.208-.301-.284-.314-.759-.03-1.061.285-.3.759-.313 1.06-.029.945.894 1.455 2.074 1.435 3.324-.021 1.249-.567 2.414-1.54 3.28-.143.128-.321.191-.498.191z"/><path d="m20.892 12c-.201 0-.402-.081-.55-.24-.281-.304-.263-.778.041-1.06 1.338-1.24 2.09-2.902 2.117-4.68.028-1.777-.672-3.459-1.97-4.735-.295-.291-.299-.766-.009-1.061.29-.296.766-.3 1.061-.01 1.594 1.567 2.453 3.638 2.418 5.829-.034 2.19-.957 4.235-2.598 5.756-.145.135-.328.201-.51.201z"/><path d="m14.74 11h-9.74c-2.757 0-5-2.243-5-5s2.243-5 5-5h9.87c.245 0 .475.12.615.321.158.226.305.464.429.701.727 1.265 1.107 2.75 1.085 4.269-.023 1.553-.47 2.455-1.098 3.561-.182.326-.366.604-.577.867-.141.177-.357.281-.584.281zm-9.74-8.5c-1.93 0-3.5 1.57-3.5 3.5s1.57 3.5 3.5 3.5h9.361c.079-.117.156-.244.234-.384.552-.972.887-1.646.905-2.846.018-1.249-.294-2.469-.9-3.526-.045-.085-.09-.166-.137-.243h-9.463z"/><path d="m12.75 10.75c-.414 0-.75-.336-.75-.75v-8c0-.414.336-.75.75-.75s.75.336.75.75v8c0 .414-.336.75-.75.75z"/><path d="m5.392 24h-2.376c-1.663 0-3.016-1.353-3.016-3.016 0-.416.079-.824.233-1.212l3.818-9.795c.113-.288.39-.477.699-.477h3.5c.219 0 .427.096.569.262s.205.386.172.603l-1.87 12.152c-.132.859-.859 1.483-1.729 1.483zm-.129-13-3.634 9.322c-.087.216-.129.437-.129.662 0 .836.68 1.516 1.516 1.516h2.376c.124 0 .228-.089.247-.212l1.737-11.288z"/><path d="m9.25 15h-1.366c-.414 0-.75-.336-.75-.75s.336-.75.75-.75h1.366c.689 0 1.25-.561 1.25-1.25v-1.75c0-.414.336-.75.75-.75s.75.336.75.75v1.75c0 1.517-1.234 2.75-2.75 2.75z"/><path d="m7.25 6.5h-2.5c-.414 0-.75-.336-.75-.75s.336-.75.75-.75h2.5c.414 0 .75.336.75.75s-.336.75-.75.75z"/></svg>